<svg xmlns="http://www.w3.org/2000/svg" width="100" height="100" fill="none"><g fill="#000" opacity="0.04"><path d="m1.2-31.2 9 9L-22 10l-9-9L1.2-31.2ZM6 .8l-7.4-7.4L-8.6.7v23.1l7.4 7.4 7.3-7.3V.8Zm0 0 7.3-7.4L20.7.8l-7.3 7.3L6.1.8ZM101.2-31.2l9 9L78 10l-9-9 32.2-32.2Zm4.9 32-7.4-7.4L91.4.7v23.1l7.4 7.4 7.3-7.3V.8Zm0 0 7.3-7.4 7.3 7.4-7.3 7.3-7.3-7.3ZM1.2 68.8l9 9L-22 110l-9-9L1.2 68.8Zm4.9 32-7.4-7.4-7.3 7.3v23.1l7.4 7.4 7.3-7.3v-23.1Zm0 0 7.3-7.4 7.3 7.4-7.3 7.3-7.3-7.3ZM101.2 68.8l9 9L78 110l-9-9 32.2-32.2Zm4.9 32-7.4-7.4-7.3 7.3v23.1l7.4 7.4 7.3-7.3v-23.1Zm0 0 7.3-7.4 7.3 7.4-7.3 7.3-7.3-7.3Z"/></g></svg>